<svg width="98" height="106" viewBox="0 0 98 106" fill="none" xmlns="http://www.w3.org/2000/svg">
<path fill-rule="evenodd" clip-rule="evenodd" d="M39.5 2.71129C45.3786 -0.682734 52.6214 -0.682735 58.5 2.71129L87.8013 19.6284C93.6799 23.0224 97.3013 29.2948 97.3013 36.0829V69.9171C97.3013 76.7051 93.6799 82.9775 87.8013 86.3715L58.5 103.289C52.6214 106.683 45.3786 106.683 39.5 103.289L10.1987 86.3715C4.32011 82.9775 0.69873 76.7051 0.69873 69.9171V36.0829C0.69873 29.2948 4.32011 23.0224 10.1987 19.6284L39.5 2.71129ZM53.5 11.3715C50.7154 9.76385 47.2846 9.76385 44.5 11.3715L15.1987 28.2886C12.4141 29.8963 10.6987 32.8675 10.6987 36.0829V69.9171C10.6987 73.1324 12.4141 76.1036 15.1987 77.7113L44.5 94.6284C47.2846 96.2361 50.7154 96.2361 53.5 94.6284L82.8013 77.7113C85.5859 76.1036 87.3013 73.1324 87.3013 69.9171V36.0829C87.3013 32.8675 85.5859 29.8963 82.8013 28.2886L53.5 11.3715Z" fill="black"/>
</svg>
