<svg width="36" height="36" viewBox="0 0 36 36" fill="none" xmlns="http://www.w3.org/2000/svg">
<path d="M25.8752 7.125C26.4965 7.125 27.0002 7.62868 27.0002 8.25C27.0002 10 27.0002 11.75 27.0002 13.5C27.0002 14.3284 26.3286 15 25.5002 15L20.2502 15C19.6289 15 19.1252 14.4963 19.1252 13.875C19.1252 13.2537 19.6289 12.75 20.2502 12.75L23.3564 12.75C21.9944 11.3604 20.0975 10.5 18.0002 10.5C13.9669 10.5 10.6767 13.6842 10.5071 17.6752C10.4807 18.296 9.95607 18.7778 9.33531 18.7514C8.71455 18.725 8.23271 18.2004 8.25909 17.5797C8.47968 12.3894 12.7562 8.25 18.0002 8.25C20.6207 8.25 22.9991 9.28423 24.7502 10.9646V8.25C24.7502 7.62868 25.2539 7.125 25.8752 7.125Z" fill="#9E8F88"/>
<path d="M10.1252 28.875C9.50386 28.875 9.00019 28.3713 9.00019 27.75L9.00018 22.5C9.00018 21.6716 9.67176 21 10.5002 21L15.7502 21C16.3715 21 16.8752 21.5037 16.8752 22.125C16.8752 22.7463 16.3715 23.25 15.7502 23.25L12.6439 23.25C14.0061 24.6397 15.9028 25.5 18.0002 25.5C22.0324 25.5 25.3219 22.3175 25.4932 18.3279C25.5198 17.7072 26.0446 17.2256 26.6654 17.2522C27.2861 17.2788 27.7677 17.8037 27.7411 18.4244C27.5184 23.6127 23.2428 27.75 18.0002 27.75C15.3797 27.75 13.0012 26.7157 11.2502 25.0355L11.2502 27.75C11.2502 28.3713 10.7465 28.875 10.1252 28.875Z" fill="#9E8F88"/>
</svg>
