<svg width="36" height="36" viewBox="0 0 36 36" fill="none" xmlns="http://www.w3.org/2000/svg">
<mask id="mask0_45_71" style="mask-type:alpha" maskUnits="userSpaceOnUse" x="6" y="6" width="24" height="22">
<path d="M16.6549 7.22548C17.2051 6.11061 18.7949 6.11061 19.3451 7.22548L21.6185 11.832C21.837 12.2747 22.2594 12.5815 22.748 12.6525L27.8315 13.3912C29.0618 13.57 29.5531 15.082 28.6628 15.9498L24.9843 19.5354C24.6308 19.88 24.4695 20.3765 24.5529 20.8631L25.4213 25.9261C25.6315 27.1515 24.3453 28.0859 23.2449 27.5074L18.698 25.117C18.261 24.8872 17.739 24.8872 17.302 25.117L12.7551 27.5074C11.6547 28.0859 10.3685 27.1515 10.5787 25.9261L11.4471 20.8631C11.5305 20.3765 11.3692 19.88 11.0157 19.5354L7.33716 15.9498C6.44689 15.082 6.93815 13.57 8.16848 13.3912L13.252 12.6525C13.7406 12.5815 14.163 12.2747 14.3815 11.832L16.6549 7.22548Z" fill="black"/>
</mask>
<g mask="url(#mask0_45_71)">
<rect width="36" height="36" fill="#D67022"/>
</g>
</svg>
